<svg xmlns="http://www.w3.org/2000/svg" viewBox="0 0 280 140">
  <defs>
    <linearGradient id="exerciseGradient" x1="0%" y1="0%" x2="100%" y2="100%">
      <stop offset="0%" style="stop-color:#E8F5E8;stop-opacity:1" />
      <stop offset="50%" style="stop-color:#C8E6C9;stop-opacity:1" />
      <stop offset="100%" style="stop-color:#A5D6A7;stop-opacity:1" />
    </linearGradient>
  </defs>
  
  <!-- Background -->
  <rect width="280" height="140" fill="url(#exerciseGradient)" rx="12"/>
  
  <!-- Exercise equipment silhouettes -->
  <g transform="translate(40, 50)" opacity="0.3">
    <!-- Dumbbell -->
    <rect x="0" y="12" width="30" height="6" fill="#4CAF50" rx="3"/>
    <circle cx="0" cy="15" r="8" fill="#4CAF50"/>
    <circle cx="30" cy="15" r="8" fill="#4CAF50"/>
  </g>
  
  <!-- Running person silhouette -->
  <g transform="translate(150, 40)" opacity="0.4">
    <!-- Head -->
    <circle cx="15" cy="12" r="10" fill="#388E3C"/>
    <!-- Body -->
    <ellipse cx="15" cy="30" rx="6" ry="12" fill="#388E3C"/>
    <!-- Arms (running position) -->
    <rect x="5" y="25" width="3" height="15" fill="#388E3C" rx="1.5" transform="rotate(-20 6.5 32.5)"/>
    <rect x="22" y="25" width="3" height="15" fill="#388E3C" rx="1.5" transform="rotate(30 23.5 32.5)"/>
    <!-- Legs (running position) -->
    <rect x="10" y="40" width="4" height="18" fill="#388E3C" rx="2" transform="rotate(15 12 49)"/>
    <rect x="16" y="40" width="4" height="18" fill="#388E3C" rx="2" transform="rotate(-25 18 49)"/>
  </g>
  
  <!-- Heart rate line -->
  <g transform="translate(200, 80)" opacity="0.25">
    <path d="M0,10 L10,10 L15,0 L20,20 L25,5 L30,15 L40,15" stroke="#4CAF50" stroke-width="3" fill="none"/>
  </g>
  
  <!-- Decorative elements -->
  <circle cx="220" cy="30" r="6" fill="#4CAF50" opacity="0.2"/>
  <circle cx="50" cy="25" r="4" fill="#4CAF50" opacity="0.3"/>
  
  <!-- Soft wave pattern -->
  <path d="M0,120 Q70,110 140,120 T280,120 L280,140 L0,140 Z" fill="#FFFFFF" opacity="0.2"/>
</svg>