<svg xmlns="http://www.w3.org/2000/svg" viewBox="0 0 280 140">
  <defs>
    <linearGradient id="hydrationGradient" x1="0%" y1="0%" x2="100%" y2="100%">
      <stop offset="0%" style="stop-color:#E1F5FE;stop-opacity:1" />
      <stop offset="50%" style="stop-color:#B3E5FC;stop-opacity:1" />
      <stop offset="100%" style="stop-color:#81D4FA;stop-opacity:1" />
    </linearGradient>
  </defs>
  
  <!-- Background -->
  <rect width="280" height="140" fill="url(#hydrationGradient)" rx="12"/>
  
  <!-- Water drops -->
  <circle cx="40" cy="30" r="8" fill="#03A9F4" opacity="0.3"/>
  <circle cx="240" cy="25" r="6" fill="#03A9F4" opacity="0.2"/>
  <circle cx="220" cy="110" r="10" fill="#03A9F4" opacity="0.25"/>
  
  <!-- Person drinking water silhouette -->
  <g transform="translate(180, 40)" opacity="0.4">
    <!-- Head -->
    <circle cx="15" cy="15" r="12" fill="#0288D1"/>
    <!-- Body -->
    <rect x="10" y="25" width="10" height="25" fill="#0288D1" rx="5"/>
    <!-- Arms -->
    <rect x="5" y="30" width="8" height="3" fill="#0288D1" rx="1.5"/>
    <rect x="17" y="30" width="8" height="3" fill="#0288D1" rx="1.5"/>
    <!-- Water bottle -->
    <rect x="25" y="25" width="4" height="15" fill="#0288D1" rx="2"/>
    <rect x="24" y="24" width="6" height="3" fill="#0288D1" rx="1"/>
  </g>
  
  <!-- Water glass -->
  <g transform="translate(50, 70)" opacity="0.3">
    <path d="M5,0 L15,0 L14,25 L6,25 Z" fill="#03A9F4"/>
    <rect x="6" y="8" width="8" height="12" fill="#B3E5FC"/>
  </g>
  
  <!-- Decorative waves -->
  <path d="M0,120 Q70,110 140,120 T280,120 L280,140 L0,140 Z" fill="#FFFFFF" opacity="0.2"/>
</svg>